  Those Magnificent Men in Their Flying Machines 1965 DVDRip Xvid fasamoo LKRG

RIPPER                           : fasamoo
Format                           : AVI
Format/Info                      : Audio Video Interleave
File size                        : 800 MiB
Duration                         : 2h 18mn
Overall bit rate                 : 811 Kbps
Writing application              : VirtualDubMod 1.5.4.1 (build 2178/release)
Writing library                  : VirtualDubMod build 2178/release
Language                         : English
Subtitles                        : English(*.srt) | English | Spanish | French                                   (*.idx,*.sub)
Genre                            : Adventure | Comedy | Action

Video
ID                               : 0
Format                           : MPEG-4 Visual
Format profile                   : Advanced Simple@L5
Format settings, BVOP            : Yes
Format settings, QPel            : No
Format settings, GMC             : No warppoints
Format settings, Matrix          : Custom
Codec ID                         : XVID
Codec ID/Hint                    : XviD
Duration                         : 2h 18mn
Bit rate                         : 684 Kbps
Width                            : 496 pixels
Height                           : 224 pixels
Display aspect ratio             : 2.2:1
Frame rate                       : 23.976 fps
Color space                      : YUV
Chroma subsampling               : 4:2:0
Bit depth                        : 8 bits
Scan type                        : Progressive
Bits/(Pixel*Frame)               : 0.257
Stream size                      : 675 MiB (84%)
Writing library                  : XviD 1.2.1 (UTC 2008-12-04)

Audio
ID                               : 1
Format                           : MPEG Audio
Format version                   : Version 1
Format profile                   : Layer 3
Mode                             : Joint stereo
Mode extension                   : MS Stereo
Codec ID                         : 55
Codec ID/Hint                    : MP3
Duration                         : 2h 18mn
Bit rate mode                    : Variable
Bit rate                         : 114 Kbps
Nominal bit rate                 : 128 Kbps
Channel(s)                       : 2 channels
Sampling rate                    : 48.0 KHz
Stream size                      : 112 MiB (14%)
Alignment                        : Aligned on interleaves
Interleave, duration             : 24 ms (0.58 video frame)
Interleave, preload duration     : 161 ms
Writing library                  : LAME3.98r
Encoding settings                : -m j -V 4 -q 2 -lowpass 17 --abr 128

                                 PLOT

In 1910, when a British newspaper offers a cash prize for a flying competition, some budding early aviation pioneers introduce some zany contraptions... In 1910, when a British newspaper offers a cash prize for a flying competition, some budding early aviation pioneers introduce some zany contraptions which can actually fly. The full title is really Those Magnificent Men in Their Flying Machines or How I Flew from London to Paris in 25 hours 11 minutes.




                                 IMBD
                     
                    http://www.imdb.com/title/tt0059797/
 
http://leetleech.org/images/98202805404249508150.png 
http://leetleech.org/images/92458681470248425279.png 
http://leetleech.org/images/75058808666683254415.png 
http://leetleech.org/images/96976584257528498802.png